<svg width="16" height="16" viewBox="0 0 16 16" fill="none" xmlns="http://www.w3.org/2000/svg">
<g clip-path="url(#clip0_21_130)">
<path d="M3.5 11.8547V10.25C3.5 9.97387 3.27612 9.75 3 9.75C2.72387 9.75 2.5 9.97387 2.5 10.25V11.8547C2.05897 12.048 1.75 12.4885 1.75 13C1.75 13.6892 2.31075 14.25 3 14.25C3.68925 14.25 4.25 13.6892 4.25 13C4.25 12.4885 3.94103 12.048 3.5 11.8547Z" fill="white"/>
<path d="M5 10.7636V2C5 0.897187 4.10281 0 3 0C1.89719 0 1 0.897187 1 2V10.7636C0.361437 11.3325 0 12.1342 0 13C0 14.6542 1.34578 16 3 16C4.65422 16 6 14.6542 6 13C6 12.1342 5.63856 11.3325 5 10.7636ZM3 15C1.89719 15 1 14.1028 1 13C1 12.3651 1.29169 11.7818 1.80031 11.3997C1.92603 11.3053 2 11.1572 2 11V2C2 1.44859 2.44859 1 3 1C3.55141 1 4 1.44859 4 2V11C4 11.1572 4.07397 11.3053 4.19969 11.3997C4.70831 11.7818 5 12.3651 5 13C5 14.1028 4.10281 15 3 15Z" fill="white"/>
<path d="M15.5 4.50003H14.7071L15.1036 4.10356C15.2988 3.90831 15.2988 3.59172 15.1036 3.39647C14.9083 3.20119 14.5917 3.20119 14.3965 3.39647L13.2929 4.50003H12.6768C12.5975 4.23437 12.4566 3.99519 12.2708 3.79872L12.5793 3.26431L14.0869 2.86037C14.3537 2.7889 14.512 2.51472 14.4405 2.248C14.369 1.98131 14.0949 1.82297 13.8281 1.89444L13.2865 2.03956L13.683 1.35281C13.8211 1.11366 13.7391 0.807874 13.5 0.669811C13.2609 0.53178 12.955 0.613686 12.817 0.852874L12.4205 1.53947L12.2754 0.997968C12.204 0.731249 11.9299 0.572905 11.6631 0.644405C11.3963 0.715874 11.238 0.990061 11.3095 1.25678L11.7134 2.76416L11.4052 3.29787C11.1373 3.23406 10.8631 3.234 10.5948 3.29787L10.2866 2.76416L10.6905 1.25678C10.762 0.990061 10.6037 0.715874 10.337 0.644405C10.0703 0.572905 9.79609 0.731218 9.72459 0.997936L9.5795 1.53941L9.18306 0.85278C9.04497 0.613624 8.73919 0.531655 8.50006 0.669718C8.26091 0.807749 8.17897 1.11356 8.317 1.35272L8.71356 2.0395L8.17197 1.89437C7.90516 1.82287 7.63103 1.98122 7.55959 2.24791C7.48812 2.51465 7.64641 2.78881 7.91313 2.86028L9.42075 3.26425L9.72931 3.79862C9.5435 3.99509 9.40259 4.23425 9.32325 4.49994H8.70719L7.60366 3.3964C7.40841 3.20112 7.09181 3.20112 6.89656 3.3964C6.70128 3.59166 6.70128 3.90825 6.89656 4.1035L7.29291 4.50003H6.5C6.22387 4.50003 6 4.72391 6 5.00003C6 5.27615 6.22387 5.50003 6.5 5.50003H7.29291L6.89647 5.8965C6.58053 6.21237 6.80859 6.75003 7.25 6.75003C7.37797 6.75003 7.50591 6.70122 7.60353 6.60356L8.70709 5.50003H9.32316C9.40253 5.76569 9.54341 6.00487 9.72922 6.20134L9.42069 6.73572L7.91306 7.13969C7.64631 7.21115 7.48803 7.48531 7.55953 7.75206C7.63097 8.01878 7.90488 8.17709 8.17191 8.10559L8.71353 7.96047L8.31697 8.64728C8.12369 8.98219 8.36869 9.39734 8.74956 9.39734C8.92234 9.39734 9.09044 9.30762 9.18306 9.14722L9.5795 8.46059L9.72459 9.00206C9.78447 9.22547 9.98647 9.37278 10.2072 9.37278C10.536 9.37278 10.7756 9.06066 10.6905 8.74325L10.2866 7.23591L10.5948 6.70219C10.8627 6.766 11.137 6.76606 11.4052 6.70219L11.7134 7.23591L11.3095 8.74328C11.2244 9.06081 11.4642 9.37281 11.7928 9.37281C12.0136 9.37281 12.2156 9.22547 12.2755 9.00209L12.4205 8.46062L12.817 9.14722C12.9096 9.30766 13.0777 9.39734 13.2505 9.39734C13.6309 9.39734 13.8766 8.98256 13.6831 8.64728L13.2865 7.96053L13.8282 8.10566C14.0948 8.17719 14.3691 8.01884 14.4406 7.75212C14.512 7.48537 14.3538 7.21122 14.087 7.13975L12.5794 6.73578L12.2708 6.20137C12.4566 6.0049 12.5975 5.76575 12.6769 5.50006H13.293L14.3965 6.60359C14.4942 6.70125 14.6221 6.75006 14.7501 6.75006C15.1915 6.75006 15.4196 6.21241 15.1036 5.89653L14.7071 5.50003H15.5C15.7762 5.50003 16 5.27615 16 5.00003C16 4.72391 15.7762 4.50003 15.5 4.50003ZM10.25 5.00003C10.25 4.58647 10.5865 4.25003 11 4.25003C11.4135 4.25003 11.75 4.58647 11.75 5.00003C11.75 5.41359 11.4135 5.75003 11 5.75003C10.5865 5.75003 10.25 5.41359 10.25 5.00003Z" fill="white"/>
</g>
<defs>
<clipPath id="clip0_21_130">
<rect width="16" height="16" fill="white"/>
</clipPath>
</defs>
</svg>
