<svg width="16" height="16" viewBox="0 0 16 16" fill="none" xmlns="http://www.w3.org/2000/svg">
<g clip-path="url(#clip0_20_126)">
<path d="M15.9311 10.2148C14.5293 7.48153 11.4785 5 8 5C4.49706 5 1.45512 7.51178 0.0688746 10.2148C-0.0229379 10.3938 -0.0229379 10.6062 0.0688746 10.7852C1.47066 13.5185 4.52147 16 8 16C11.9387 16 14.8421 12.9087 15.9311 10.7852C16.0229 10.6062 16.0229 10.3938 15.9311 10.2148ZM8 14.75C5.16325 14.75 2.78206 12.8654 1.34512 10.5C2.76616 8.16078 5.13975 6.25 8 6.25C10.848 6.25 13.226 8.14797 14.6549 10.5C13.2113 12.8762 10.8206 14.75 8 14.75ZM0.196968 3.47412C0.427906 3.21759 0.823125 3.19691 1.07966 3.42788L2.47166 4.68122C2.72816 4.91222 2.74887 5.30737 2.51791 5.56391C2.28694 5.82047 1.89172 5.84109 1.63522 5.61016L0.243218 4.35678C-0.0132816 4.12584 -0.0340004 3.73066 0.196968 3.47412ZM7.375 3.125V0.625C7.375 0.279844 7.65481 0 8 0C8.34519 0 8.625 0.279844 8.625 0.625V3.125C8.625 3.47016 8.34519 3.75 8 3.75C7.65481 3.75 7.375 3.47016 7.375 3.125ZM3.4125 1.73297C3.27209 1.41763 3.41391 1.04819 3.72925 0.907781C4.04462 0.767375 4.41403 0.909188 4.55444 1.22453L5.51028 3.37141C5.65069 3.68672 5.50887 4.05619 5.19353 4.19659C4.87909 4.33656 4.50922 4.19616 4.36834 3.87984L3.4125 1.73297ZM13.4821 5.56391C13.2511 5.30741 13.2718 4.91222 13.5283 4.68122L14.9203 3.42788C15.1768 3.19691 15.5721 3.21759 15.803 3.47412C16.034 3.73062 16.0133 4.12581 15.7568 4.35678L14.3648 5.61016C14.1082 5.84116 13.713 5.82037 13.4821 5.56391ZM10.4897 3.37141L11.4455 1.22453C11.5859 0.909188 11.9554 0.767375 12.2707 0.907781C12.5861 1.04819 12.7279 1.41763 12.5875 1.73297L11.6316 3.87981C11.4906 4.19659 11.1204 4.33634 10.8064 4.19659C10.4911 4.05619 10.3493 3.68675 10.4897 3.37141ZM8 7.42969C6.30703 7.42969 4.92969 8.80703 4.92969 10.5C4.92969 12.193 6.30703 13.5703 8 13.5703C9.69297 13.5703 11.0703 12.193 11.0703 10.5C11.0703 8.80703 9.69297 7.42969 8 7.42969ZM8 12.3203C6.99628 12.3203 6.17969 11.5037 6.17969 10.5C6.17969 9.49628 6.99628 8.67969 8 8.67969C9.00372 8.67969 9.82031 9.49628 9.82031 10.5C9.82031 11.5037 9.00372 12.3203 8 12.3203Z" fill="white"/>
</g>
<defs>
<clipPath id="clip0_20_126">
<rect width="16" height="16" fill="white"/>
</clipPath>
</defs>
</svg>
