<svg width="16" height="16" viewBox="0 0 16 16" fill="none" xmlns="http://www.w3.org/2000/svg">
<g clip-path="url(#clip0_19_29)">
<path d="M7.87822 5.46602L10.1686 7.7564L10.1795 7.63643C10.1795 6.43306 9.20157 5.45511 7.99819 5.45511L7.87822 5.46602Z" fill="white"/>
<path d="M7.99819 4.00092C10.005 4.00092 11.6337 5.62966 11.6337 7.63647C11.6337 8.10546 11.5392 8.55263 11.3756 8.96343L13.5024 11.0902C14.6003 10.1741 15.4656 8.98889 16 7.63647C14.7385 4.44448 11.6374 2.18317 7.99823 2.18317C6.98027 2.18317 6.00596 2.36493 5.10072 2.69213L6.67127 4.25904C7.08204 4.09908 7.52921 4.00092 7.99819 4.00092Z" fill="white"/>
<path d="M0.727096 2.01953L2.3849 3.67734L2.71575 4.00818C1.51602 4.94615 0.567144 6.19315 0 7.63644C1.25791 10.8284 4.36265 13.0897 7.99819 13.0897C9.12522 13.0897 10.2013 12.8716 11.1866 12.4753L11.4956 12.7844L13.6151 14.9075L14.5422 13.9841L1.65416 1.09247L0.727096 2.01953ZM4.74802 6.03681L5.8714 7.16019C5.83868 7.31653 5.81687 7.47284 5.81687 7.63644C5.81687 8.83981 6.79482 9.81776 7.99819 9.81776C8.16179 9.81776 8.31813 9.79595 8.47083 9.76323L9.59421 10.8866C9.11067 11.1266 8.57263 11.272 7.99819 11.272C5.99138 11.272 4.36265 9.64325 4.36265 7.63644C4.36265 7.06203 4.50808 6.52396 4.74802 6.03681Z" fill="white"/>
</g>
<defs>
<clipPath id="clip0_19_29">
<rect width="16" height="16" fill="white"/>
</clipPath>
</defs>
</svg>
