<svg width="16" height="16" viewBox="0 0 16 16" fill="none" xmlns="http://www.w3.org/2000/svg">
<g clip-path="url(#clip0_20_106)">
<path d="M15.9086 5.84216C15.8304 5.74671 15.7136 5.69099 15.5911 5.69099H14.0339C13.6496 4.67742 13.149 3.68433 12.5799 3.30947C10.6114 2.01444 5.38987 2.01444 3.42132 3.30947C2.85185 3.68474 2.35326 4.67906 1.96692 5.69099H0.409691C0.285965 5.69099 0.169613 5.74671 0.0921817 5.84216C0.0143408 5.93721 -0.0167956 6.06299 0.00860513 6.18385L0.23926 7.30148C0.27859 7.49198 0.446563 7.628 0.640346 7.628H1.10166C0.656324 8.14175 0.440417 8.78865 0.43755 9.43596C0.434682 10.2357 0.738262 10.9584 1.29339 11.4697C1.29954 11.475 1.30568 11.4787 1.31142 11.484V13.0478C1.31142 13.3866 1.58673 13.6623 1.92595 13.6623H3.36232C3.70154 13.6623 3.97685 13.3866 3.97685 13.0478V12.4193H12.0236V13.0478C12.0236 13.3866 12.2989 13.6623 12.6381 13.6623H14.0745C14.4129 13.6623 14.689 13.3866 14.689 13.0478V11.5147C15.2781 10.9752 15.5596 10.2328 15.5633 9.49168C15.5657 8.82224 15.34 8.15158 14.8684 7.62718H15.3605C15.5551 7.62718 15.7231 7.49116 15.7616 7.30025L15.9926 6.18303C16.0164 6.06299 15.9865 5.93803 15.9086 5.84216ZM4.09607 4.33574C5.66518 3.30291 10.3352 3.30291 11.9035 4.33574C12.2083 4.53567 12.6004 5.34398 12.9597 6.33379H3.04071C3.39919 5.34439 3.79127 4.53649 4.09607 4.33574ZM2.25821 9.59C2.25821 8.92221 2.79982 8.38142 3.4672 8.38142C4.1354 8.38142 4.67619 8.92221 4.67619 9.59C4.67619 10.2578 4.1354 10.799 3.4672 10.799C2.79982 10.799 2.25821 10.2578 2.25821 9.59ZM12.5492 10.799C11.8818 10.799 11.3402 10.2578 11.3402 9.59C11.3402 8.92221 11.8818 8.38142 12.5492 8.38142C13.2174 8.38142 13.7582 8.92221 13.7582 9.59C13.7582 10.2578 13.2166 10.799 12.5492 10.799Z" fill="white"/>
</g>
<defs>
<clipPath id="clip0_20_106">
<rect width="16.0004" height="16" fill="white"/>
</clipPath>
</defs>
</svg>
