<svg width="16" height="16" viewBox="0 0 16 16" fill="none" xmlns="http://www.w3.org/2000/svg">
<g clip-path="url(#clip0_19_52)">
<path d="M14.9123 8.43755C14.1817 7.10621 12.51 6.61929 11.1786 7.34992C12.51 6.61929 12.9969 4.94756 12.2663 3.61621C12.9971 4.94756 14.6686 5.43447 16 4.70384C14.6686 5.43464 14.1817 7.10621 14.9123 8.43755Z" fill="white"/>
<path d="M6.31868 16C5.58805 14.6686 3.91632 14.1817 2.58498 14.9123C3.91632 14.1817 4.40324 12.51 3.67261 11.1786C4.40341 12.51 6.07497 12.9969 7.40632 12.2663C6.07497 12.997 5.58805 14.6686 6.31868 16Z" fill="white"/>
<path d="M5.6082 7.24132C4.51049 5.24179 1.9997 4.51066 0 5.6082C1.99953 4.51049 2.73083 1.9997 1.63313 0C2.73083 1.99953 5.24162 2.73083 7.24132 1.63313C5.24179 2.73083 4.51066 5.24162 5.6082 7.24132Z" fill="white"/>
</g>
<defs>
<clipPath id="clip0_19_52">
<rect width="16" height="16" fill="white"/>
</clipPath>
</defs>
</svg>
