<svg width="16" height="16" viewBox="0 0 16 16" fill="none" xmlns="http://www.w3.org/2000/svg">
<g clip-path="url(#clip0_20_62)">
<path d="M7.99988 3.3125C5.41535 3.3125 3.31238 5.41547 3.31238 8C3.31238 10.5845 5.41535 12.6875 7.99988 12.6875C10.5844 12.6875 12.6874 10.5845 12.6874 8C12.6874 5.41547 10.5844 3.3125 7.99988 3.3125Z" fill="white"/>
<path d="M12.8655 10.8125C12.378 11.6656 11.6562 12.3781 10.803 12.875L13.6249 13.6344L12.8655 10.8125Z" fill="white"/>
<path d="M7.99987 0L6.55615 2.57184C7.01553 2.44063 7.50296 2.375 7.99987 2.375C8.49678 2.375 8.98425 2.44063 9.44362 2.57184L7.99987 0Z" fill="white"/>
<path d="M2.37488 2.375L3.13425 5.1875C3.62178 4.33434 4.32491 3.63122 5.178 3.13438L2.37488 2.375Z" fill="white"/>
<path d="M2.57178 6.54688L0.00928497 8L2.57178 9.45312C2.44054 8.99375 2.37488 8.50625 2.37488 8C2.37488 7.49372 2.4405 7.00625 2.57178 6.54688Z" fill="white"/>
<path d="M3.13425 10.8125L2.37488 13.6344L5.19675 12.875C4.34363 12.3781 3.62178 11.6656 3.13425 10.8125Z" fill="white"/>
<path d="M7.99988 13.625C7.49366 13.625 7.00613 13.5594 6.53738 13.4281L7.99988 16L9.46238 13.4281C8.99363 13.5594 8.5061 13.625 7.99988 13.625Z" fill="white"/>
<path d="M10.8175 3.13912C11.6656 3.63272 12.3723 4.34006 12.8648 5.189L13.6281 2.37637L10.8175 3.13912Z" fill="white"/>
<path d="M15.9907 8.00456L13.4297 6.55487C13.5529 7.01693 13.6249 7.49965 13.6249 8C13.6249 8.50421 13.552 8.99071 13.4269 9.45603L15.9907 8.00456Z" fill="white"/>
</g>
<defs>
<clipPath id="clip0_20_62">
<rect width="16" height="16" fill="white"/>
</clipPath>
</defs>
</svg>
